<?xml version="1.0" encoding="utf-8"?>
<!-- Generator: Adobe Illustrator 22.0.1, SVG Export Plug-In . SVG Version: 6.00 Build 0)  -->
<svg version="1.0" id="Layer_1" xmlns="http://www.w3.org/2000/svg" xmlns:xlink="http://www.w3.org/1999/xlink" x="0px" y="0px"
	 viewBox="0 0 200 200" style="enable-background:new 0 0 200 200;" xml:space="preserve">
<style type="text/css">
	.st0{fill:#FFFFFF;}
	.st1{stroke:#000000;stroke-width:0.3922;stroke-miterlimit:10;}
	.st2{fill:none;stroke:#000000;stroke-width:5.905;stroke-miterlimit:10;}
	.st3{fill:none;stroke:#000000;stroke-width:1.4763;stroke-miterlimit:10;}
	.st4{fill:#FFFFFF;stroke:#000000;stroke-width:6.4329;stroke-miterlimit:10;}
	.st5{fill:#222221;}
</style>
<path d="M182.9,99.1H170c5.6-3.2,9.3-9.2,9.3-16c0-7.1-4-13.5-10.2-16.5c1.1-2.4,1.6-4.9,1.6-7.6c0-10.2-8.3-18.5-18.5-18.5
	c-3.2,0-6.3,0.8-9.1,2.4c-3.6-2.5-7.9-3.9-12.4-3.9c-0.3,0-0.6,0-0.9,0c-3.3-9.6-12.4-16.3-22.8-16.3c-9.3,0-17.7,5.4-21.7,13.6
	c-0.7-0.1-1.5-0.1-2.2-0.1c-9.8,0-18.5,5.9-22.2,14.7c-0.7-0.2-1.3-0.4-2-0.5c0.4-4,1.6-7,3.8-9.1c1.9-1.8,3.8-2.2,3.8-2.2l0,0l0,0
	c0.7-0.1,1.3-0.4,1.8-0.9c0.6-0.6,0.9-1.4,0.9-2.2c0-0.8-0.3-1.6-0.9-2.2c-0.6-0.6-1.4-0.9-2.2-0.9c-0.2,0-0.3,0-0.5,0l0,0
	c-1.8,0.3-4.4,1.3-6.7,3.4V25.7c0-1.7-1.4-3.1-3.1-3.1h-7.5c-1.7,0-3.1,1.4-3.1,3.1v11.6c-3.6-4.4-7.4-6.9-7.7-7.1
	c-1.4-0.9-3.4-0.5-4.3,0.9c-0.9,1.4-0.5,3.4,0.9,4.3c0.1,0.1,9.5,6.4,10.9,15.4c-10.5,3.2-18.2,12.4-18.2,23.3
	c0,4.5,2.6,15.4,5.1,25h-2c-1.7,0-3.1,1.4-3.1,3.1v76.5c0,1.7,1.4,3.1,3.1,3.1h153c1.7,0,3.1-1.4,3.1-3.1v-76.5
	C186,100.4,184.6,99.1,182.9,99.1z M83.1,42.3c1.2,0,2.4,0.1,3.6,0.4c1.5,0.3,3-0.5,3.5-2c2.5-7.1,9.3-11.9,16.8-11.9
	c7.4,0,13.9,4.6,16.6,11.2c-8.4,2.9-14.4,10.9-14.4,20.3c0,1.7,1.4,3.1,3.1,3.1s3.1-1.4,3.1-3.1c0-8.4,6.9-15.3,15.3-15.3
	c3.7,0,7.4,1.4,10.2,3.9c1.1,1,2.7,1,3.9,0.2c2.1-1.6,4.7-2.5,7.4-2.5c6.8,0,12.3,5.5,12.3,12.3c0,2.7-0.8,5.2-2.4,7.3
	c-0.6,0.8-0.8,1.9-0.4,2.9c0.3,1,1.2,1.7,2.2,2c5.5,1.4,9.3,6.3,9.3,11.9c0,6.8-5.5,12.3-12.3,12.3c-0.8,0-1.6-0.1-2.3-0.2
	c-1.5-0.3-3,0.6-3.5,2c-0.2,0.7-0.6,1.3-0.9,2h-3.9l12.7-18.3c0.5-0.7,0.7-1.5,0.5-2.4c-0.2-0.8-0.6-1.5-1.3-2l-9.1-6
	c-0.7-0.5-1.6-0.6-2.4-0.4c-0.8,0.2-1.5,0.7-2,1.4l-4.5,7.5l3.7-18.8c0.3-1.7-0.8-3.3-2.4-3.6l-7.9-1.6c-0.8-0.2-1.7,0-2.4,0.5
	c-0.7,0.5-1.2,1.2-1.3,2l-1,5.5h-7.3c-1.7,0-3.1,1.4-3.1,3.1v17.9c-2.1-10.6-11.4-18.6-22.6-18.6c-5,0-9.8,1.6-13.8,4.6
	c-3.3,2.5-5.9,5.9-7.5,9.7c0.4-2.3,0.6-4.1,0.6-5.4c0-4.2-1.1-8.2-3.2-11.7C77.5,58,81.7,55,86.6,55c0.8,0,1.5,0.1,2.3,0.2
	c1.5,0.3,3-0.6,3.6-2c0.7-1.9,1.8-3.6,3.4-4.9c1.3-1.1,1.5-3.1,0.3-4.4c-1.1-1.3-3.1-1.5-4.4-0.3c-1.7,1.5-3.1,3.2-4.2,5.2
	c-0.3,0-0.7,0-1,0c-6.2,0-11.8,3.2-14.9,8.3c-1.5-1.4-3.1-2.7-4.9-3.7C69.4,46.7,75.9,42.3,83.1,42.3z M140.5,96.8l11.7-19.4
	l3.7,2.5l-13.4,19.2H140L140.5,96.8z M136.6,84.4v-8.6c0-0.1,0-0.1,0-0.2l2.6-14l1.8,0.4L136.6,84.4z M128.5,93.7c0-0.1,0-0.2,0-0.4
	V69h1.8v30.1h-1c0-0.2,0-0.4,0-0.6C129.4,96.8,129.1,95.1,128.5,93.7z M85.9,79.1c-0.1,0-0.2,0-0.3,0c3-4.7,8.4-7.8,14.1-7.8
	c8.2,0,15.1,5.9,16.5,13.7c-4.3,0-8.1,2.2-10.5,5.5C101.8,83.8,94.4,79.1,85.9,79.1z M102.4,99.1H69.9h-0.5
	c1.5-7.8,8.3-13.7,16.5-13.7S100.9,91.3,102.4,99.1z M116.3,91.3c3.8,0,6.8,3.2,6.8,7.1c0,0.2,0,0.4,0,0.6h-13.6c0-0.2,0-0.4,0-0.6
	C109.5,94.5,112.6,91.3,116.3,91.3z M51.4,28.8h1.2v20.9c-0.4,0-0.8,0-1.2,0V28.8z M33.2,71.6c0.2,0,0.4,0.1,0.6,0.1h15.4
	c1.7,0,3.1-1.4,3.1-3.1c0-1.7-1.4-3.1-3.1-3.1H35.4c3.4-5.7,10-9.6,17.5-9.6c11,0,19.9,8.2,19.9,18.2c0,0.8-0.1,2.3-0.6,5.1H59.8
	c-1.7,0-3.1,1.4-3.1,3.1s1.4,3.1,3.1,3.1h10.3c-3.8,3.5-6.4,8.3-7.1,13.7H38.3c-3.4-12.7-5.3-21.7-5.3-25
	C33,73.3,33.1,72.4,33.2,71.6z M179.8,124.5h-27.4c-1.7,0-3.1,1.4-3.1,3.1c0,1.7,1.4,3.1,3.1,3.1h27.4V150H81.7
	c-1.7,0-3.1,1.4-3.1,3.1c0,1.7,1.4,3.1,3.1,3.1h98.1v19.3H33v-19.3h27.4c1.7,0,3.1-1.4,3.1-3.1c0-1.7-1.4-3.1-3.1-3.1H33v-19.3h98.1
	c1.7,0,3.1-1.4,3.1-3.1c0-1.7-1.4-3.1-3.1-3.1H33v-19.3H36h143.8V124.5z"/>
</svg>
